Coordinates
version=1
nRows=12
nColumns=24
inDegrees=yes

Units are S.I. units (second, meters, Newtons, ...)
Angles are in degrees.

endheader
time	pelvis_tilt	pelvis_list	pelvis_rotation	pelvis_tx	pelvis_ty	pelvis_tz	hip_flexion_r	hip_adduction_r	hip_rotation_r	knee_angle_r	ankle_angle_r	subtalar_angle_r	mtp_angle_r	hip_flexion_l	hip_adduction_l	hip_rotation_l	knee_angle_l	ankle_angle_l	subtalar_angle_l	mtp_angle_l	lumbar_extension	lumbar_bending	lumbar_rotation
      0.87433333	     -0.23910760	     -2.94689080	      3.77288931	     -0.39134731	      0.90971167	      0.30909830	     10.85423874	     10.75898886	     -1.53540556	    -21.11633435	     10.20293891	     -4.04185143	      3.41222516	     17.82852719	     -7.80750696	     -4.72681561	    -60.53668338	     10.68822244	     -3.62409618	      1.71818096	     -4.51670589	      5.78212073	     -0.00860725
      0.87850000	     -0.21986425	     -2.85656814	      3.41404984	     -0.38648076	      0.91061312	      0.30971234	     10.21997952	     10.73466281	     -1.23221213	    -20.62985301	     10.19881612	     -3.82725912	      3.47266913	     18.25274930	     -7.73438452	     -5.03104522	    -59.67242031	     10.78303199	     -4.04577064	      1.43476100	     -4.59244902	      5.68304973	      0.43561242
      0.88266667	     -0.17794382	     -2.76346721	      3.06521280	     -0.38162024	      0.91150563	      0.31031978	      9.55668121	     10.70450643	     -0.92361221	    -20.13367015	     10.23477527	     -3.65149281	      3.50277315	     18.63898941	     -7.65634063	     -5.32065897	    -58.76645418	     10.80090781	     -4.52553206	      1.30108743	     -4.69345240	      5.57972331	      0.62835255
      0.88683333	     -0.14783576	     -2.67384130	      2.68314773	     -0.37677361	      0.91232225	      0.31096324	      8.92185964	     10.67178508	     -0.59567150	    -19.66910710	     10.24532775	     -3.45277261	      3.52996765	     19.01921206	     -7.60097167	     -5.65694695	    -57.83329446	     10.80913994	     -4.98584525	      1.18661973	     -4.77836947	      5.50846002	      0.88408295
      0.89100000	     -0.10431573	     -2.58621260	      2.31849527	     -0.37194414	      0.91311061	      0.31159448	      8.26680654	     10.63321044	     -0.29275814	    -19.18089239	     10.27894422	     -3.26829118	      3.57420710	     19.37894845	     -7.54039542	     -5.96020111	    -56.87377581	     10.78292154	     -5.45937107	      1.01267134	     -4.88899975	      5.38253975	      1.28378247
      0.89516667	     -0.07326733	     -2.50436579	      1.91191999	     -0.36712926	      0.91381787	      0.31227728	      7.64819398	     10.59771784	      0.04818187	    -18.74334602	     10.29612825	     -3.07123234	      3.61100616	     19.73007545	     -7.51371724	     -6.33036815	    -55.88426947	     10.73561869	     -5.90363239	      0.87354564	     -4.97609970	      5.31713943	      1.56782997
      0.89933333	     -0.03663895	     -2.42519105	      1.53430854	     -0.36231457	      0.91448509	      0.31292347	      7.01275724	     10.55514651	      0.36395615	    -18.27517605	     10.33187974	     -2.88041161	      3.66926005	     20.07243255	     -7.47519490	     -6.65208675	    -54.87544062	     10.67113565	     -6.35329397	      0.66713018	     -5.07320488	      5.19966810	      1.98567696
      0.90350000	     -0.00134027	     -2.35276689	      1.12810719	     -0.35751367	      0.91509233	      0.31360520	      6.39537422	     10.51490636	      0.69777771	    -17.84162417	     10.36842734	     -2.69233172	      3.71984904	     20.39800589	     -7.46504441	     -7.02046736	    -53.84235867	     10.57678227	     -6.76942860	      0.49502558	     -5.16322868	      5.11749089	      2.29876649
      0.90766667	      0.01410118	     -2.29846467	      0.71233140	     -0.35273115	      0.91560600	      0.31429033	      5.81224194	     10.48428341	      1.01874531	    -17.42467252	     10.36655713	     -2.46626839	      3.83981586	     20.73764306	     -7.48057054	     -7.39389005	    -52.79957481	     10.49555714	     -7.15242077	      0.10850552	     -5.23537252	      5.06056752	      2.80863093
      0.91183333	      0.05956015	     -2.22871754	      0.31419002	     -0.34795218	      0.91612455	      0.31495300	      5.19198470	     10.43266483	      1.35643174	    -17.00268115	     10.43837292	     -2.29692059	      3.90028849	     21.02985762	     -7.47014799	     -7.74144541	    -51.72085432	     10.35199689	     -7.52148408	     -0.07853834	     -5.34047381	      4.96870334	      3.03398774
      0.91600000	      0.09125806	     -2.17799336	     -0.09137425	     -0.34317884	      0.91656379	      0.31562084	      4.59544784	     10.39282646	      1.68182585	    -16.59174481	     10.47776146	     -2.09869657	      3.97177399	     21.32813964	     -7.48949373	     -8.10140679	    -50.63248088	     10.21367963	     -7.85379487	     -0.28765112	     -5.42685150	      4.90417299	      3.39718818
      0.92016667	      0.10647966	     -2.13821657	     -0.52328503	     -0.33843730	      0.91691320	      0.31631342	      4.04552022	     10.35766768	      2.01419480	    -16.23848200	     10.51095169	     -1.89045452	      4.01589800	     21.63328885	     -7.54184699	     -8.50608954	    -49.53701702	     10.04470818	     -8.11651792	     -0.40954291	     -5.50127519	      4.87276477	      3.63176501
